<?xml version="1.0" encoding="UTF-8" standalone="no"?>
<svg width="611px" height="165px" viewBox="0 0 611 165" version="1.1" xmlns="http://www.w3.org/2000/svg" xmlns:xlink="http://www.w3.org/1999/xlink">
    <!-- Generator: Sketch 39.1 (31720) - http://www.bohemiancoding.com/sketch -->
    <title>logo</title>
    <desc>Created with Sketch.</desc>
    <defs>
        <polygon id="path-1" points="169.050447 0.384 0 0.384 0 164.9996 169.050447 164.9996"></polygon>
        <polygon id="path-3" points="0 165.616 610.881 165.616 610.881 1 0 1"></polygon>
    </defs>
    <g id="Page-1" stroke="none" stroke-width="1" fill="none" fill-rule="evenodd">
        <g id="logo" transform="translate(0.000000, -1.000000)">
            <g id="outline" transform="translate(0.000000, 0.616000)">
                <mask id="mask-2" fill="white">
                    <use xlink:href="#path-1"></use>
                </mask>
                <g id="Clip-2"></g>
                <path d="M84.6891,0.3836 L84.6891,0.3836 C82.3941,0.3836 80.0981,0.9306 77.9121,1.9136 L22.6031,28.3666 C18.2301,30.4426 15.1701,34.2686 14.0771,38.9686 L0.4131,98.3226 C-0.6799,103.0226 0.4131,107.8326 3.4741,111.6586 L41.7311,159.2066 C44.6831,162.9236 49.1641,164.9996 53.8641,164.9996 L115.1861,164.9996 C119.8861,164.9996 124.3671,162.9236 127.3191,159.2066 L165.5761,111.6586 C168.6371,107.9416 169.7301,103.0226 168.6371,98.3226 L154.9731,38.9686 C153.8801,34.2686 150.8201,30.4426 146.4471,28.3666 L91.3571,1.9136 C89.2801,0.9306 86.9841,0.3836 84.6891,0.3836 M84.6891,5.5206 C86.2191,5.5206 87.7501,5.8486 89.1711,6.5046 L144.4801,32.8476 C147.3221,34.2686 149.5081,36.8926 150.1641,39.9526 L163.8271,99.3066 C164.5921,102.4766 163.8271,105.7556 161.7501,108.2696 L123.4931,155.8186 C121.5251,158.3326 118.4651,159.7536 115.2951,159.7536 L53.9741,159.7536 C50.8041,159.7536 47.7431,158.3326 45.7761,155.8186 L7.5181,108.2696 C5.5511,105.7556 4.7861,102.4766 5.4411,99.3066 L19.1051,39.9526 C19.8701,36.7826 21.9471,34.1596 24.7891,32.8476 L80.0981,6.3956 C81.5191,5.8486 83.1591,5.5206 84.6891,5.5206" id="Fill-1" fill="#FFFFFF" mask="url(#mask-2)"></path>
            </g>
            <path d="M52.6875,146.4897 C54.6485,148.9517 57.5895,150.3107 60.6595,150.3107 L108.7825,150.2257 C111.8535,150.2257 114.7635,148.7817 116.7245,146.4047 L146.0605,109.4697 C146.9075,108.3167 146.8135,106.0557 146.8135,104.1507 L146.8135,52.5737 L83.7835,88.8647 L83.7835,88.8637 L20.8135,52.6077 L20.8135,104.1507 C20.8135,106.0867 21.4975,107.9747 22.7555,109.5547 L52.6875,146.4897 Z" id="Fill-4" fill="#1FBFCF"></path>
            <polygon id="Fill-6" fill="#C9E9EC" points="83.7835 88.8645 146.8135 52.5745 83.7245 16.3055 20.8135 52.6055"></polygon>
            <path d="M98.8202,116.9015 C97.0132,118.0515 94.5482,117.7235 93.0692,115.9155 C92.5762,115.4225 92.4122,114.7655 92.2482,114.1085 L90.7692,87.3255 C102.1062,88.6405 112.4582,93.7335 120.3452,101.6205 L98.8202,116.9015 Z M76.4742,113.4505 C76.3092,115.7515 74.5022,117.7235 72.0372,117.7235 C71.3802,117.7235 70.5592,117.5585 70.0662,117.2305 L48.2122,101.6205 C54.9492,94.8835 63.3292,90.2835 72.6952,88.1475 C74.5022,87.8185 76.1452,87.4895 77.9532,87.1615 L76.4742,113.4505 Z M137.9262,102.4425 L139.5692,100.9635 L139.5692,100.6345 C139.5692,99.8135 139.7332,98.9915 140.3912,98.1705 C142.3622,96.3625 144.8272,94.8835 147.7842,93.0765 C148.2772,92.7475 148.7702,92.5835 149.2632,92.2545 C150.2492,91.7625 151.0712,91.2695 152.0572,90.6115 C152.2212,90.4475 152.5492,90.2835 152.8782,89.9545 C153.0422,89.7905 153.2072,89.7905 153.2072,89.6255 C155.5072,87.6545 156.0002,84.3685 154.3572,82.2325 C153.5352,81.0815 152.0572,80.4245 150.5782,80.4245 C149.2632,80.4245 148.1132,80.9175 146.9632,81.7395 L146.6342,82.0675 C146.3062,82.2325 146.1412,82.5605 145.8132,82.7245 C144.9912,83.5465 144.3342,84.2035 143.6772,85.0255 C143.3482,85.3535 143.0202,85.8465 142.5272,86.1755 C140.2262,88.6405 138.0902,90.6115 135.9542,92.0905 C135.4612,92.4195 134.9682,92.5835 134.4752,92.5835 C134.1472,92.5835 133.8182,92.5835 133.4892,92.4195 L133.1612,92.4195 L131.1892,93.7335 C129.0532,91.4335 126.7532,89.4615 124.4522,87.4895 C114.5942,79.7675 102.5992,75.0025 90.1122,73.8525 L89.9472,71.7165 L89.6192,71.3875 C89.1262,70.8945 88.4682,70.4015 88.3042,69.2515 C88.1402,66.6225 88.4682,63.6645 88.7972,60.3785 L88.7972,60.2145 C88.7972,59.7215 88.9612,59.0645 89.1262,58.5715 C89.2902,57.5855 89.4542,56.5995 89.6192,55.4495 L89.6192,54.4635 L89.6192,53.9705 C89.6192,51.0135 87.3182,48.5485 84.5252,48.5485 C83.2112,48.5485 81.8962,49.2055 80.9102,50.1915 C79.9242,51.1775 79.4312,52.4915 79.4312,53.9705 L79.4312,54.2995 L79.4312,55.2855 C79.4312,56.4355 79.5962,57.4215 79.9242,58.4065 C80.0892,58.8995 80.0892,59.3925 80.2532,60.0505 L80.2532,60.2145 C80.5822,63.5005 81.0742,66.4585 80.7462,69.0875 C80.5822,70.2375 79.9242,70.7305 79.4312,71.2235 C79.2672,71.3875 79.2672,71.3875 79.1032,71.5515 L78.9382,73.6875 C75.9812,74.0165 73.0232,74.3455 70.0662,75.0025 C57.4142,77.7955 46.2412,84.2035 37.5322,93.4055 L35.8892,92.2545 L35.5602,92.2545 C35.2322,92.2545 34.9032,92.4195 34.5752,92.4195 C34.0822,92.4195 33.5892,92.2545 33.0962,91.9265 C30.9602,90.4475 28.8242,88.3115 26.5232,85.8465 C26.1952,85.5185 25.8662,85.0255 25.3732,84.6965 C24.7162,83.8755 24.0592,83.2175 23.2372,82.3965 C23.0732,82.2325 22.7442,82.0675 22.4162,81.7395 C22.2512,81.5745 22.0872,81.5745 22.0872,81.4105 C21.1012,80.5885 19.7872,80.0955 18.4722,80.0955 C16.9932,80.0955 15.5152,80.7535 14.6932,81.9035 C13.0502,84.0395 13.5432,87.3255 15.8432,89.2975 C16.0082,89.2975 16.0082,89.4615 16.1722,89.4615 C16.5002,89.6255 16.6652,89.9545 16.9932,90.1185 C17.9792,90.7765 18.8012,91.2695 19.7872,91.7625 C20.2802,91.9265 20.7732,92.2545 21.2652,92.5835 C24.2232,94.3915 26.6882,95.8695 28.6592,97.6775 C29.4812,98.4985 29.4812,99.3205 29.4812,100.1415 L29.4812,100.4705 L31.1242,101.9495 C30.7952,102.4425 30.4672,102.7705 30.3032,103.2635 C28.3762,106.3085 26.7402,109.4835 25.3752,112.7495 L34.7422,124.3075 C36.0092,119.8345 37.8642,115.5135 40.3252,111.4795 L59.8782,128.8965 C61.6862,130.3745 61.8502,133.1685 60.3712,134.9755 C59.8782,135.6325 59.2212,136.1255 58.4002,136.2905 L47.1092,139.5685 L52.7192,146.4895 C54.6802,148.9525 57.6202,150.3105 60.6912,150.3105 L108.8142,150.2255 C111.8842,150.2255 114.7942,148.7825 116.7562,146.4045 L122.0232,139.7725 L110.4862,136.4545 C108.1862,135.7975 106.8712,133.4965 107.3642,131.1965 C107.5282,130.5395 107.8572,129.8825 108.3502,129.3895 L128.2322,111.4795 C130.6522,115.4665 132.5772,119.9485 133.9032,124.8155 L143.4572,112.7875 C141.9152,109.1885 140.0652,105.7325 137.9262,102.4425 L137.9262,102.4425 Z" id="Fill-8" fill="#FFFFFF"></path>
            <path d="M249.1597,96.893 C249.1597,92.286 248.5667,89.021 247.3847,87.101 C246.1987,85.181 244.1677,84.221 241.2877,84.221 C240.3907,84.221 239.4637,84.269 238.5037,84.366 C237.5437,84.461 236.6157,84.574 235.7207,84.702 L235.7207,123.677 L221.4157,123.677 L221.4157,74.91 C222.6307,74.589 224.0557,74.253 225.6877,73.901 C227.3197,73.55 229.0477,73.229 230.8717,72.941 C232.6957,72.653 234.5677,72.43 236.4877,72.269 C238.4077,72.11 240.2947,72.029 242.1517,72.029 C245.7997,72.029 248.7597,72.495 251.0317,73.421 C253.3037,74.35 255.1747,75.454 256.6477,76.733 C258.6947,75.262 261.0477,74.11 263.7037,73.277 C266.3587,72.446 268.8067,72.029 271.0477,72.029 C275.0797,72.029 278.3917,72.59 280.9837,73.709 C283.5757,74.83 285.6397,76.414 287.1767,78.461 C288.7117,80.51 289.7677,82.942 290.3447,85.757 C290.9197,88.575 291.2077,91.709 291.2077,95.165 L291.2077,123.677 L276.9037,123.677 L276.9037,96.893 C276.9037,92.286 276.3107,89.021 275.1277,87.101 C273.9427,85.181 271.9117,84.221 269.0317,84.221 C268.2647,84.221 267.1907,84.414 265.8157,84.797 C264.4387,85.181 263.3037,85.662 262.4077,86.237 C262.8547,87.71 263.1427,89.261 263.2717,90.893 C263.3987,92.525 263.4637,94.27 263.4637,96.125 L263.4637,123.677 L249.1597,123.677 L249.1597,96.893 Z" id="Fill-10" fill="#FFFFFF"></path>
            <mask id="mask-4" fill="white">
                <use xlink:href="#path-3"></use>
            </mask>
            <g id="Clip-13"></g>
            <path d="M301.383,123.677 L315.688,123.677 L315.688,73.181 L301.383,73.181 L301.383,123.677 Z M317.031,58.589 C317.031,61.214 316.182,63.278 314.487,64.781 C312.791,66.286 310.791,67.037 308.487,67.037 C306.183,67.037 304.182,66.286 302.487,64.781 C300.791,63.278 299.943,61.214 299.943,58.589 C299.943,55.965 300.791,53.902 302.487,52.397 C304.182,50.894 306.183,50.141 308.487,50.141 C310.791,50.141 312.791,50.894 314.487,52.397 C316.182,53.902 317.031,55.965 317.031,58.589 L317.031,58.589 Z" id="Fill-12" fill="#FFFFFF" mask="url(#mask-4)"></path>
            <path d="M326.3419,74.9096 C328.7739,74.2056 331.9099,73.5506 335.7499,72.9406 C339.5899,72.3336 343.6219,72.0286 347.8459,72.0286 C352.1329,72.0286 355.7009,72.5906 358.5499,73.7096 C361.3979,74.8296 363.6539,76.4136 365.3189,78.4616 C366.9819,80.5106 368.1649,82.9416 368.8699,85.7576 C369.5729,88.5746 369.9259,91.7096 369.9259,95.1656 L369.9259,123.6776 L355.6219,123.6776 L355.6219,96.8926 C355.6219,92.2856 355.0129,89.0206 353.7979,87.1006 C352.5819,85.1806 350.3089,84.2216 346.9829,84.2216 C345.9579,84.2216 344.8699,84.2686 343.7179,84.3656 C342.5669,84.4616 341.5419,84.5736 340.6469,84.7016 L340.6469,123.6776 L326.3419,123.6776 L326.3419,74.9096 Z" id="Fill-14" fill="#FFFFFF" mask="url(#mask-4)"></path>
            <path d="M380.1,123.677 L394.405,123.677 L394.405,73.181 L380.1,73.181 L380.1,123.677 Z M395.749,58.589 C395.749,61.214 394.9,63.278 393.205,64.781 C391.509,66.286 389.509,67.037 387.205,67.037 C384.9,67.037 382.9,66.286 381.205,64.781 C379.509,63.278 378.661,61.214 378.661,58.589 C378.661,55.965 379.509,53.902 381.205,52.397 C382.9,50.894 384.9,50.141 387.205,50.141 C389.509,50.141 391.509,50.894 393.205,52.397 C394.9,53.902 395.749,55.965 395.749,58.589 L395.749,58.589 Z" id="Fill-15" fill="#FFFFFF" mask="url(#mask-4)"></path>
            <path d="M419.3643,91.3148 C420.7703,89.7878 422.2243,88.1978 423.7273,86.5438 C425.2283,84.8888 426.6833,83.2508 428.0913,81.6268 C429.4983,80.0038 430.8243,78.4618 432.0703,76.9988 C433.3163,75.5368 434.3873,74.2638 435.2833,73.1808 L452.2923,73.1808 C448.8983,77.0788 445.5873,80.7978 442.3553,84.3408 C439.1233,87.8858 435.5883,91.5418 431.7483,95.3088 C433.6683,97.0408 435.6503,99.1088 437.7003,101.5118 C439.7473,103.9168 441.7313,106.3998 443.6513,108.9648 C445.5723,111.5298 447.3313,114.0928 448.9313,116.6578 C450.5313,119.2218 451.8753,121.5618 452.9643,123.6768 L436.5163,123.6768 C435.4933,122.0088 434.3283,120.1658 433.0183,118.1438 C431.7093,116.1238 430.3203,114.1028 428.8493,112.0828 C427.3803,110.0618 425.8323,108.1208 424.2033,106.2608 C422.5743,104.4008 420.9603,102.8288 419.3643,101.5438 L419.3643,123.6768 L405.0593,123.6768 L405.0593,51.4848 L419.3643,49.1808 L419.3643,91.3148 Z" id="Fill-16" fill="#FFFFFF" mask="url(#mask-4)"></path>
            <path d="M501.9229,121.9496 C499.4889,122.6536 496.3549,123.3096 492.5149,123.9176 C488.6749,124.5246 484.6429,124.8296 480.4189,124.8296 C476.1299,124.8296 472.5619,124.2536 469.7149,123.1006 C466.8659,121.9496 464.6099,120.3336 462.9459,118.2536 C461.2809,116.1746 460.0979,113.6926 459.3949,110.8126 C458.6899,107.9326 458.3389,104.7646 458.3389,101.3086 L458.3389,73.1806 L472.6429,73.1806 L472.6429,99.5816 C472.6429,104.1886 473.2499,107.5176 474.4669,109.5646 C475.6819,111.6136 477.9539,112.6366 481.2819,112.6366 C482.3059,112.6366 483.3949,112.5896 484.5469,112.4936 C485.6979,112.3966 486.7219,112.2866 487.6179,112.1576 L487.6179,73.1806 L501.9229,73.1806 L501.9229,121.9496 Z" id="Fill-17" fill="#FFFFFF" mask="url(#mask-4)"></path>
            <path d="M544.9307,98.0453 C544.9307,88.8293 541.5367,84.2213 534.7547,84.2213 C533.2817,84.2213 531.8267,84.4133 530.3867,84.7973 C528.9467,85.1813 527.7787,85.6613 526.8827,86.2363 L526.8827,112.2533 C527.5857,112.3823 528.4817,112.4933 529.5707,112.5893 C530.6587,112.6853 531.8417,112.7333 533.1217,112.7333 C537.0257,112.7333 539.9697,111.3893 541.9537,108.7013 C543.9377,106.0133 544.9307,102.4613 544.9307,98.0453 M559.5227,98.4293 C559.5227,102.4613 558.9297,106.1083 557.7457,109.3733 C556.5617,112.6373 554.8497,115.4213 552.6107,117.7253 C550.3687,120.0283 547.6187,121.8053 544.3547,123.0533 C541.0907,124.3013 537.3777,124.9253 533.2187,124.9253 C531.4907,124.9253 529.6817,124.8443 527.7937,124.6853 C525.9067,124.5243 524.0507,124.3163 522.2267,124.0613 C520.4027,123.8053 518.6587,123.5013 516.9937,123.1493 C515.3287,122.7983 513.8577,122.4293 512.5777,122.0453 L512.5777,51.4843 L526.8827,49.1813 L526.8827,74.3333 C528.4817,73.6293 530.1467,73.0853 531.8737,72.7013 C533.6027,72.3163 535.4577,72.1253 537.4427,72.1253 C541.0267,72.1253 544.1947,72.7493 546.9467,73.9973 C549.6977,75.2453 552.0007,77.0213 553.8587,79.3253 C555.7137,81.6293 557.1217,84.3983 558.0817,87.6293 C559.0417,90.8613 559.5227,94.4613 559.5227,98.4293" id="Fill-18" fill="#FFFFFF" mask="url(#mask-4)"></path>
            <path d="M597.0567,93.3412 C596.9927,92.1262 596.7847,90.9412 596.4327,89.7892 C596.0797,88.6372 595.5357,87.6132 594.8007,86.7172 C594.0647,85.8212 593.1357,85.0852 592.0167,84.5092 C590.8967,83.9332 589.5037,83.6452 587.8407,83.6452 C586.2407,83.6452 584.8647,83.9182 583.7127,84.4612 C582.5607,85.0052 581.6007,85.7262 580.8327,86.6212 C580.0647,87.5182 579.4727,88.5582 579.0567,89.7412 C578.6397,90.9262 578.3367,92.1262 578.1447,93.3412 L597.0567,93.3412 Z M563.4567,98.8132 C563.4567,94.3342 564.1437,90.4132 565.5207,87.0532 C566.8967,83.6932 568.7037,80.8942 570.9447,78.6532 C573.1847,76.4132 575.7597,74.7172 578.6727,73.5652 C581.5837,72.4132 584.5777,71.8372 587.6487,71.8372 C594.8157,71.8372 600.4797,74.0292 604.6407,78.4132 C608.7997,82.7972 610.8807,89.2462 610.8807,97.7572 C610.8807,98.5892 610.8477,99.5012 610.7857,100.4932 C610.7207,101.4862 610.6557,102.3652 610.5927,103.1332 L578.1447,103.1332 C578.4637,106.0772 579.8397,108.4132 582.2727,110.1412 C584.7037,111.8692 587.9677,112.7332 592.0647,112.7332 C594.6887,112.7332 597.2637,112.4932 599.7927,112.0132 C602.3207,111.5332 604.3837,110.9422 605.9847,110.2372 L607.9047,121.8532 C607.1367,122.2372 606.1127,122.6212 604.8327,123.0052 C603.5517,123.3892 602.1277,123.7252 600.5607,124.0132 C598.9927,124.3012 597.3117,124.5412 595.5207,124.7332 C593.7287,124.9252 591.9357,125.0212 590.1447,125.0212 C585.5997,125.0212 581.6487,124.3492 578.2887,123.0052 C574.9287,121.6612 572.1447,119.8212 569.9367,117.4852 C567.7287,115.1502 566.0967,112.3822 565.0407,109.1812 C563.9847,105.9822 563.4567,102.5262 563.4567,98.8132 L563.4567,98.8132 Z" id="Fill-19" fill="#FFFFFF" mask="url(#mask-4)"></path>
        </g>
    </g>
</svg>