<?xml version="1.0" encoding="utf-8"?>
<!-- Generator: Adobe Illustrator 19.2.1, SVG Export Plug-In . SVG Version: 6.00 Build 0)  -->
<svg version="1.1" id="Layer_13" xmlns="http://www.w3.org/2000/svg" xmlns:xlink="http://www.w3.org/1999/xlink" x="0px" y="0px"
	 viewBox="0 0 708.9 737.9" style="enable-background:new 0 0 708.9 737.9;" xml:space="preserve">
<style type="text/css">
	.st0{fill:url(#SVGID_1_);}
	.st1{fill:#FFFFFF;}
	.st2{fill:none;}
	.st3{fill:#29ABE2;}
	.st4{font-family:'GurmukhiMN';}
	.st5{font-size:70.33px;}
	.st6{font-family:'GurmukhiMN-Bold';}
</style>
<g>
	<linearGradient id="SVGID_1_" gradientUnits="userSpaceOnUse" x1="221.8893" y1="385.5011" x2="687.9203" y2="78.2506">
		<stop  offset="0" style="stop-color:#00BDD0"/>
		<stop  offset="1" style="stop-color:#2C68EA"/>
	</linearGradient>
	<path class="st0" d="M299.2,433c-7.1,0-13.9-3.2-18.4-8.9L211.5,338c-4.6-5.7-6.3-13.1-4.6-20.2l24.7-107.5
		c1.6-7.1,6.3-12.9,12.9-16l100.1-47.9c3.2-1.6,6.7-2.4,10.3-2.4s7.1,0.8,10.3,2.4l100.1,47.7c6.5,3.2,11.3,8.9,12.9,16L503,317.7
		c1.6,7.1,0,14.4-4.6,20.2l-69.3,86.1c-4.6,5.5-11.3,8.9-18.4,8.9L299.2,433L299.2,433z"/>
	<g>
		<path class="st1" d="M344.8,326.2c2.1,0,3.6-1.7,3.7-3.6l1.2-22.2c-1.5,0.3-2.9,0.6-4.4,0.8c-7.9,1.8-15,5.7-20.6,11.4l18.4,13.2
			C343.5,326,344.2,326.2,344.8,326.2z"/>
		<path class="st1" d="M392.1,320.9L375.4,336c-0.4,0.4-0.7,1-0.8,1.5c-0.4,1.9,0.7,3.9,2.6,4.4l21.2,6.1c0.4-4.6,0.1-9.3-1-14
			C396.3,329.2,394.5,324.8,392.1,320.9z"/>
		<path class="st1" d="M311.8,348.1l21.5-6.2c0.7-0.1,1.2-0.6,1.7-1.1c1.2-1.5,1.1-3.9-0.4-5.1L318,320.9
			C313,329.1,310.9,338.6,311.8,348.1z"/>
		<path class="st1" d="M361.8,323.1c0.1,0.6,0.3,1.1,0.7,1.5c1.2,1.5,3.3,1.8,4.8,0.8l18.2-12.9c-6.7-6.7-15.4-10.9-24.9-12.1
			L361.8,323.1z"/>
		<path class="st1" d="M451.1,321.2l-17.7-77l-1.9-8.8c-2-7.1-8.5-12.3-16.2-12.3l-23.1,0.1c-4.7,0-9.1,2.5-11.5,6.5l-24.3,38.6
			c3.7,1.5,3,5.9,3,5.9c0,1-0.1,1.4-0.3,2.2c-1.2,3.5-1,6.8-0.9,9c0.1,1,0.8,1.4,1.2,1.8c0.1,0.1,0.2,0.1,0.3,0.3l0.2,1.8
			c10.5,1,20.7,5,29,11.5c1.9,1.7,3.9,3.3,5.7,5.2l1.7-1.2h0.3c0.3,0,0.6,0.2,0.8,0.2c0.4,0,0.8-0.1,1.2-0.4c1.8-1.2,3.6-2.9,5.5-5
			c0.4-0.3,0.7-0.7,1-1c0.6-0.7,1.1-1.2,1.8-1.9c0.3-0.1,0.4-0.4,0.7-0.6c0.1-0.1,0.1-0.1,0.3-0.3c1-0.7,1.9-1.1,3-1.1
			c1.2,0,2.5,0.6,3.2,1.5c1.4,1.8,1,4.6-1,6.2c0,0.1-0.1,0.1-0.3,0.3c-0.3,0.3-0.6,0.4-0.7,0.6c-0.8,0.6-1.5,1-2.4,1.4
			c-0.4,0.3-0.8,0.4-1.2,0.7c-2.5,1.5-4.9,2.8-6.6,4.3c-0.6,0.7-1,1.4-1,2.1v0.3l-1,1.2c3.6,5.5,6.4,11.6,7.9,18.2
			c1.5,6.5,1.9,13.2,1.1,19.5l1.8,0.6c0,0.1,0.2,0.1,0.2,0.3c0.3,0.6,0.6,1.1,1.5,1.6c0.4,0.1,0.9,0.4,1.4,0.4h10.2
			c5.1,0,10-2.4,13.7-6l8.3-8.5C450.7,334.5,452.6,327.6,451.1,321.2z"/>
		<polygon class="st1" points="351.7,336.7 347.5,342 349,348.5 355.1,351.4 361.2,348.5 362.6,342 358.5,336.7 		"/>
		<path class="st1" d="M294.9,353.2c1.2,0,2.4-0.1,3.4-0.4c0.8-0.4,1.2-0.8,1.5-1.4c0-0.1,0.1-0.1,0.1-0.2l1.8-0.5
			c-1.8-12.7,0.8-25.6,7.8-36.6c0.1-0.4,0.4-0.7,0.6-1.1l-1.4-1.2v-0.3c0-0.7,0-1.4-0.6-2.1c-1.7-1.5-3.7-2.8-6.2-4.3
			c-0.4-0.3-0.8-0.6-1.2-0.7c-0.8-0.4-1.5-0.8-2.3-1.4c-0.3-0.1-0.4-0.4-0.7-0.6c-0.1,0-0.1-0.1-0.3-0.1c-1.9-1.7-2.4-4.4-1-6.2
			c0.7-1,1.9-1.5,3.2-1.5c1.1,0,2.2,0.4,3,1.1c0,0.1,0.1,0.1,0.3,0.3c0.3,0.3,0.6,0.4,0.7,0.6c0.7,0.7,1.2,1.2,1.8,1.9
			c0.4,0.3,0.7,0.7,1,1c1.9,2.1,3.7,3.9,5.5,5.1c0.4,0.3,0.8,0.4,1.2,0.4c0.3,0,0.6-0.1,0.8-0.1h0.3l1.4,0.9
			c7.3-7.8,16.8-13.2,27.4-15.5c2.5-0.6,5-0.8,7.5-1.1l0.1-1.8c0.1-0.1,0.1-0.1,0.3-0.3c0.4-0.4,1-0.8,1-1.8c0.4-6.1-1-8.8-1.1-9
			c-0.3-0.8-0.6-1.6-0.8-2.6v-0.8v-0.3c0-1.2,0.8-2.4,1.7-3.2c0.2-0.2,0.6-0.3,0.8-0.5l-23.9-39.1c-2.5-4-6.8-6.5-11.5-6.5
			l-23.1-0.1c-7.7,0-14.3,5.2-16.2,12.3l-1.9,8.8l-17.7,77c-1.5,6.4,0.4,13.2,5.1,17.8l8.3,8.3c3.6,3.6,8.5,5.6,13.7,5.6H294.9z"/>
	</g>
	<rect x="165.2" y="478.1" class="st2" width="378.6" height="115.6"/>
	<text transform="matrix(1 0 0 1 201.2465 533.9193)"><tspan x="0" y="0" class="st3 st4 st5">mini</tspan><tspan x="137" y="0" class="st3 st6 st5">kube</tspan></text>
</g>
</svg>
