<?xml version="1.0" encoding="utf-8"?>
<!-- Generator: Adobe Illustrator 19.2.1, SVG Export Plug-In . SVG Version: 6.00 Build 0)  -->
<svg version="1.1" id="Layer_13" xmlns="http://www.w3.org/2000/svg" xmlns:xlink="http://www.w3.org/1999/xlink" x="0px" y="0px"
	 viewBox="0 0 708.9 737.9" style="enable-background:new 0 0 708.9 737.9;" xml:space="preserve">
<style type="text/css">
	.st0{fill:url(#SVGID_1_);}
	.st1{fill:none;}
	.st2{fill:#29ABE2;}
	.st3{font-family:'GurmukhiMN';}
	.st4{font-size:70.3477px;}
	.st5{font-family:'GurmukhiMN-Bold';}
	.st6{fill:#FFFFFF;}
	.st7{opacity:0.24;fill:#FFFFFF;}
</style>
<g>
	<linearGradient id="SVGID_1_" gradientUnits="userSpaceOnUse" x1="221.856" y1="384.1255" x2="688.0043" y2="76.7976">
		<stop  offset="0" style="stop-color:#00BDD0"/>
		<stop  offset="1" style="stop-color:#2C68EA"/>
	</linearGradient>
	<path class="st0" d="M299.2,431.7c-7.1,0-13.9-3.2-18.4-8.9l-69.3-86.1c-4.6-5.7-6.3-13.1-4.6-20.2L231.7,209
		c1.6-7.1,6.3-12.9,12.9-16l100.2-47.9c3.2-1.6,6.7-2.4,10.3-2.4c3.6,0,7.1,0.8,10.3,2.4l100.2,47.7c6.5,3.2,11.3,8.9,12.9,16
		L503,316.3c1.6,7.1,0,14.4-4.6,20.2l-69.3,86.1c-4.6,5.5-11.3,8.9-18.4,8.9L299.2,431.7L299.2,431.7z"/>
	<rect x="165.1" y="479.6" class="st1" width="378.7" height="115.6"/>
	<text transform="matrix(1 0 0 1 201.2067 535.3398)"><tspan x="0" y="0" class="st2 st3 st4">mini</tspan><tspan x="137" y="0" class="st2 st5 st4">kube</tspan></text>
	<path class="st6" d="M407.4,303.4L407.4,303.4L407.4,303.4C407.3,303.4,407.3,303.4,407.4,303.4h-0.1c-0.1,0-0.2,0-0.2-0.1
		c-0.2,0-0.4-0.1-0.6-0.1c-0.7-0.1-1.4-0.2-2-0.2c-0.3,0-0.6,0-1.1-0.1h-0.1c-2.2-0.2-4-0.4-5.7-0.9c-0.7-0.3-0.9-0.7-1.2-1.2
		c0-0.1-0.1-0.1-0.1-0.2l0,0l-1.4-0.4c0.6-4.8,0.4-9.9-0.7-14.9c-1.2-5-3.2-9.6-5.9-13.8l1.1-0.9v-0.2c0-0.5,0.1-1.1,0.5-1.6
		c1.3-1.2,2.8-2.1,4.7-3.3l0,0c0.3-0.2,0.6-0.3,0.9-0.5c0.6-0.3,1.2-0.6,1.8-1.1c0.1-0.1,0.3-0.2,0.5-0.4c0.1-0.1,0.2-0.1,0.2-0.2
		l0,0c1.5-1.3,1.8-3.4,0.7-4.7c-0.5-0.7-1.5-1.2-2.4-1.2c-0.8,0-1.6,0.3-2.3,0.8l0,0l0,0c-0.1,0.1-0.1,0.1-0.2,0.2
		c-0.2,0.1-0.3,0.3-0.5,0.4c-0.5,0.5-0.9,0.9-1.4,1.5c-0.2,0.2-0.4,0.5-0.7,0.7l0,0c-1.5,1.6-2.8,2.8-4.2,3.8
		c-0.3,0.2-0.6,0.3-0.9,0.3c-0.2,0-0.4,0-0.6-0.1h-0.2l0,0l-1.3,0.8c-1.4-1.5-2.8-2.7-4.3-4c-6.3-5-14-8-22-8.7l-0.1-1.4
		c-0.1-0.1-0.1-0.1-0.2-0.2c-0.3-0.3-0.7-0.6-0.8-1.4c-0.1-1.7,0.1-3.6,0.3-5.7v-0.1c0-0.3,0.1-0.7,0.2-1.1c0.1-0.6,0.2-1.3,0.3-2
		v-0.6v-0.3l0,0l0,0c0-1.9-1.5-3.5-3.3-3.5c-0.8,0-1.7,0.4-2.3,1.1s-0.9,1.5-0.9,2.4l0,0l0,0v0.2v0.6c0,0.7,0.1,1.4,0.3,2
		c0.1,0.3,0.1,0.6,0.2,1.1v0.1c0.2,2.1,0.5,4,0.3,5.7c-0.1,0.7-0.5,1.1-0.8,1.4c-0.1,0.1-0.1,0.1-0.2,0.2l0,0l-0.1,1.4
		c-1.9,0.2-3.8,0.4-5.7,0.8c-8.1,1.8-15.3,5.9-20.9,11.8l-1.1-0.7h-0.2c-0.2,0-0.4,0.1-0.6,0.1c-0.3,0-0.6-0.1-0.9-0.3
		c-1.4-0.9-2.7-2.3-4.2-3.9l0,0c-0.2-0.2-0.4-0.5-0.7-0.7c-0.4-0.5-0.8-0.9-1.4-1.5c-0.1-0.1-0.3-0.2-0.5-0.4
		c-0.1-0.1-0.2-0.1-0.2-0.2l0,0c-0.6-0.5-1.5-0.8-2.3-0.8c-0.9,0-1.9,0.4-2.4,1.2c-1.1,1.4-0.7,3.5,0.7,4.7l0,0l0,0
		c0.1,0,0.1,0.1,0.2,0.1c0.2,0.1,0.3,0.3,0.5,0.4c0.6,0.4,1.2,0.7,1.8,1.1c0.3,0.1,0.6,0.3,0.9,0.5l0,0c1.9,1.2,3.5,2.1,4.7,3.3
		c0.5,0.5,0.5,1.1,0.5,1.6v0.2l0,0l1.1,0.9c-0.2,0.3-0.4,0.5-0.5,0.8c-5.3,8.3-7.3,18.1-5.9,27.8l-1.4,0.4c0,0.1-0.1,0.1-0.1,0.2
		c-0.2,0.4-0.5,0.8-1.2,1.2c-1.6,0.5-3.5,0.7-5.7,0.9H305c-0.3,0-0.7,0-1.1,0.1c-0.6,0-1.3,0.1-2,0.2c-0.2,0-0.4,0.1-0.6,0.1
		c-0.1,0-0.2,0-0.3,0.1l0,0l0,0c-1.9,0.4-3.1,2.2-2.7,3.9c0.3,1.5,1.7,2.4,3.4,2.4c0.3,0,0.5,0,0.8-0.1l0,0l0,0c0.1,0,0.2,0,0.2-0.1
		c0.2,0,0.4-0.1,0.6-0.1c0.7-0.2,1.3-0.4,1.9-0.7c0.3-0.1,0.6-0.3,0.9-0.4h0.1c2-0.7,3.8-1.4,5.5-1.6h0.2c0.6,0,1.1,0.3,1.4,0.5
		c0.1,0,0.1,0.1,0.2,0.1l0,0l1.5-0.2c2.5,7.8,7.4,14.8,13.8,19.8c1.5,1.2,2.9,2.1,4.5,3.1l-0.6,1.4c0,0.1,0.1,0.1,0.1,0.2
		c0.2,0.4,0.4,0.9,0.2,1.7c-0.6,1.6-1.6,3.2-2.7,5v0.1c-0.2,0.3-0.4,0.5-0.6,0.8c-0.4,0.5-0.7,1.1-1.2,1.7c-0.1,0.1-0.2,0.3-0.3,0.5
		c0,0.1-0.1,0.2-0.1,0.2l0,0l0,0c-0.8,1.8-0.2,3.8,1.4,4.5c0.4,0.2,0.8,0.3,1.3,0.3c1.3,0,2.5-0.8,3.2-2l0,0l0,0
		c0-0.1,0.1-0.2,0.1-0.2c0.1-0.2,0.2-0.4,0.3-0.5c0.3-0.7,0.4-1.3,0.6-1.9c0.1-0.3,0.2-0.6,0.3-0.9l0,0c0.7-2.1,1.3-3.8,2.2-5.3
		c0.4-0.6,0.9-0.7,1.4-0.9c0.1,0,0.1,0,0.2-0.1l0,0l0.7-1.4c4.6,1.8,9.7,2.7,14.7,2.7c3.1,0,6.2-0.3,9.2-1.1
		c1.9-0.4,3.7-0.9,5.5-1.6l0.6,1.2c0.1,0,0.1,0,0.2,0.1c0.5,0.1,0.9,0.3,1.4,0.9c0.8,1.5,1.5,3.3,2.2,5.3v0.1
		c0.1,0.3,0.2,0.6,0.3,0.9c0.2,0.6,0.3,1.3,0.6,1.9c0.1,0.2,0.2,0.3,0.3,0.5c0,0.1,0.1,0.2,0.1,0.2l0,0l0,0c0.6,1.3,1.9,2,3.2,2
		c0.4,0,0.8-0.1,1.3-0.3c0.7-0.4,1.4-1.1,1.6-1.9c0.2-0.8,0.2-1.8-0.2-2.6l0,0l0,0c0-0.1-0.1-0.1-0.1-0.2c-0.1-0.2-0.2-0.4-0.3-0.5
		c-0.3-0.6-0.7-1.2-1.2-1.7c-0.2-0.3-0.4-0.5-0.6-0.8v-0.1c-1.2-1.8-2.2-3.4-2.7-5c-0.2-0.7,0-1.2,0.1-1.7c0-0.1,0.1-0.1,0.1-0.2
		l0,0l-0.5-1.3c5.6-3.3,10.3-7.9,13.9-13.6c1.9-2.9,3.4-6.2,4.4-9.5l1.3,0.2c0.1,0,0.1-0.1,0.2-0.1c0.4-0.2,0.7-0.5,1.4-0.5h0.2
		c1.7,0.2,3.5,0.8,5.5,1.6h0.1c0.3,0.1,0.6,0.3,0.9,0.4c0.6,0.3,1.2,0.5,1.9,0.7c0.2,0,0.4,0.1,0.6,0.1c0.1,0,0.2,0,0.3,0.1l0,0
		c0.3,0.1,0.5,0.1,0.8,0.1c1.6,0,3-1.1,3.4-2.4C410.5,305.6,409.3,303.9,407.4,303.4L407.4,303.4z M358.6,298.2l-4.6,2.2l-4.6-2.2
		l-1.2-5l3.2-4h5.2l3.2,4L358.6,298.2L358.6,298.2z M386.1,287.3c0.8,3.6,1.1,7.2,0.7,10.6l-16.1-4.6c-1.5-0.4-2.3-1.9-2-3.4
		c0.1-0.4,0.3-0.8,0.6-1.2l12.7-11.5C383.9,280.2,385.3,283.6,386.1,287.3L386.1,287.3z M377.1,271l-13.8,9.8
		c-1.2,0.7-2.7,0.5-3.7-0.6c-0.3-0.3-0.4-0.7-0.5-1.2l-0.9-17.2C365.4,262.6,372,265.9,377.1,271L377.1,271z M346.5,262.3
		c1.2-0.2,2.2-0.4,3.4-0.6l-0.9,16.9c-0.1,1.5-1.3,2.7-2.8,2.7c-0.4,0-0.9-0.1-1.3-0.3l-14-10C335.1,266.6,340.5,263.7,346.5,262.3
		L346.5,262.3z M325.8,277.3l12.5,11.2c1.2,0.9,1.3,2.7,0.3,3.9c-0.3,0.4-0.7,0.7-1.3,0.8l-16.3,4.7
		C320.4,290.8,322,283.5,325.8,277.3L325.8,277.3z M322.9,305.8l16.8-2.8c1.4-0.1,2.6,0.8,3,2.2c0.1,0.6,0.1,1.2-0.1,1.7l0,0
		l-6.4,15.5C330.2,318.6,325.5,312.8,322.9,305.8L322.9,305.8z M361.4,326.8c-2.4,0.5-4.8,0.8-7.4,0.8c-3.7,0-7.3-0.6-10.6-1.7
		l8.3-15.1c0.8-0.9,2.2-1.4,3.4-0.7c0.5,0.3,0.9,0.7,1.3,1.2l0,0l8.1,14.6C363.5,326.3,362.4,326.5,361.4,326.8L361.4,326.8z
		 M381.9,312.2c-2.6,4.2-6.1,7.6-10.1,10.2l-6.6-15.9c-0.3-1.3,0.2-2.6,1.5-3.3c0.4-0.2,0.9-0.3,1.5-0.3l16.9,2.8
		C384.3,308,383.3,310.2,381.9,312.2L381.9,312.2z"/>
	<path class="st7" d="M463.9,313.4L463.9,313.4L463.9,313.4C463.6,313.4,463.6,313.4,463.9,313.4h-0.2c-0.2,0-0.4,0-0.4-0.2
		c-0.4,0-0.9-0.2-1.3-0.2c-1.5-0.2-2.8-0.4-4.1-0.4c-0.7,0-1.3,0-2.2-0.2h-0.2c-4.6-0.4-8.3-0.9-11.7-2c-1.5-0.7-2-1.5-2.4-2.4
		c0-0.2-0.2-0.2-0.2-0.4l0,0l-2.8-0.9c1.3-10,0.9-20.4-1.5-30.7s-6.5-19.8-12.2-28.5l2.2-2v-0.4c0-1.1,0.2-2.2,1.1-3.3
		c2.6-2.4,5.9-4.3,9.8-6.7l0,0c0.7-0.4,1.3-0.7,2-1.1c1.3-0.7,2.4-1.3,3.7-2.2c0.2-0.2,0.7-0.4,1.1-0.9c0.2-0.2,0.4-0.2,0.4-0.4l0,0
		c3-2.6,3.7-7,1.5-9.8c-1.1-1.5-3-2.4-5-2.4c-1.7,0-3.3,0.7-4.8,1.7l0,0l0,0c-0.2,0.2-0.2,0.2-0.4,0.4c-0.4,0.2-0.7,0.7-1.1,0.9
		c-1.1,1.1-2,2-2.8,3c-0.4,0.4-0.9,1.1-1.5,1.5l0,0c-3,3.3-5.9,5.9-8.7,7.8c-0.7,0.4-1.3,0.7-2,0.7c-0.4,0-0.9,0-1.3-0.2h-0.4l0,0
		l-2.6,1.7c-2.8-3-5.9-5.7-8.9-8.3c-13-10.2-28.9-16.5-45.4-18l-0.2-2.8c-0.2-0.2-0.2-0.2-0.4-0.4c-0.7-0.7-1.5-1.3-1.7-2.8
		c-0.2-3.5,0.2-7.4,0.7-11.7v-0.2c0-0.7,0.2-1.5,0.4-2.2c0.2-1.3,0.4-2.6,0.7-4.1V184v-0.7l0,0l0,0c0-3.9-3-7.2-6.7-7.2
		c-1.7,0-3.5,0.9-4.8,2.2c-1.3,1.3-2,3-2,5l0,0l0,0v0.4v1.3c0,1.5,0.2,2.8,0.7,4.1c0.2,0.7,0.2,1.3,0.4,2.2v0.2
		c0.4,4.3,1.1,8.3,0.7,11.7c-0.2,1.5-1.1,2.2-1.7,2.8c-0.2,0.2-0.2,0.2-0.4,0.4l0,0l-0.2,2.8c-3.9,0.4-7.8,0.9-11.7,1.7
		c-16.7,3.7-31.5,12.2-43,24.3l-2.2-1.5h-0.4c-0.4,0-0.9,0.2-1.3,0.2c-0.7,0-1.3-0.2-2-0.7c-2.8-2-5.7-4.8-8.7-8l0,0
		c-0.4-0.4-0.9-1.1-1.5-1.5c-0.9-1.1-1.7-2-2.8-3c-0.2-0.2-0.7-0.4-1.1-0.9c-0.2-0.2-0.4-0.2-0.4-0.4l0,0c-1.3-1.1-3-1.7-4.8-1.7
		c-2,0-3.9,0.9-5,2.4c-2.2,2.8-1.5,7.2,1.5,9.8l0,0l0,0c0.2,0,0.2,0.2,0.4,0.2c0.4,0.2,0.7,0.7,1.1,0.9c1.3,0.9,2.4,1.5,3.7,2.2
		c0.7,0.2,1.3,0.7,2,1.1l0,0c3.9,2.4,7.2,4.3,9.8,6.7c1.1,1.1,1.1,2.2,1.1,3.3v0.4l0,0l2.2,2c-0.4,0.7-0.9,1.1-1.1,1.7
		c-10.9,17.2-15,37.4-12.2,57.4l-2.8,0.9c0,0.2-0.2,0.2-0.2,0.4c-0.4,0.9-1.1,1.7-2.4,2.4c-3.3,1.1-7.2,1.5-11.7,2h-0.2
		c-0.7,0-1.5,0-2.2,0.2c-1.3,0-2.6,0.2-4.1,0.4c-0.4,0-0.9,0.2-1.3,0.2c-0.2,0-0.4,0-0.7,0.2l0,0l0,0c-3.9,0.9-6.3,4.6-5.7,8
		c0.7,3,3.5,5,7,5c0.7,0,1.1,0,1.7-0.2l0,0l0,0c0.2,0,0.4,0,0.4-0.2c0.4,0,0.9-0.2,1.3-0.2c1.5-0.4,2.6-0.9,3.9-1.5
		c0.7-0.2,1.3-0.7,2-0.9h0.2c4.1-1.5,7.8-2.8,11.3-3.3h0.4c1.3,0,2.2,0.7,2.8,1.1c0.2,0,0.2,0.2,0.4,0.2l0,0l3-0.4
		c5.2,16.1,15.2,30.4,28.5,40.9c3,2.4,6.1,4.3,9.3,6.3l-1.3,2.8c0,0.2,0.2,0.2,0.2,0.4c0.4,0.9,0.9,2,0.4,3.5
		c-1.3,3.3-3.3,6.5-5.7,10.2v0.2c-0.4,0.7-0.9,1.1-1.3,1.7c-0.9,1.1-1.5,2.2-2.4,3.5c-0.2,0.2-0.4,0.7-0.7,1.1
		c0,0.2-0.2,0.4-0.2,0.4l0,0l0,0c-1.7,3.7-0.4,7.8,2.8,9.3c0.9,0.4,1.7,0.7,2.6,0.7c2.6,0,5.2-1.7,6.5-4.1l0,0l0,0
		c0-0.2,0.2-0.4,0.2-0.4c0.2-0.4,0.4-0.9,0.7-1.1c0.7-1.5,0.9-2.6,1.3-3.9c0.2-0.7,0.4-1.3,0.7-2l0,0c1.5-4.3,2.6-7.8,4.6-10.9
		c0.9-1.3,2-1.5,2.8-2c0.2,0,0.2,0,0.4-0.2l0,0l1.5-2.8c9.6,3.7,20,5.7,30.4,5.7c6.3,0,12.8-0.7,18.9-2.2c3.9-0.9,7.6-2,11.3-3.3
		l1.3,2.4c0.2,0,0.2,0,0.4,0.2c1.1,0.2,2,0.7,2.8,2c1.7,3,3,6.7,4.6,10.9v0.2c0.2,0.7,0.4,1.3,0.7,2c0.4,1.3,0.7,2.6,1.3,3.9
		c0.2,0.4,0.4,0.7,0.7,1.1c0,0.2,0.2,0.4,0.2,0.4l0,0l0,0c1.3,2.6,3.9,4.1,6.5,4.1c0.9,0,1.7-0.2,2.6-0.7c1.5-0.9,2.8-2.2,3.3-3.9
		c0.4-1.7,0.4-3.7-0.4-5.4l0,0l0,0c0-0.2-0.2-0.2-0.2-0.4c-0.2-0.4-0.4-0.9-0.7-1.1c-0.7-1.3-1.5-2.4-2.4-3.5
		c-0.4-0.7-0.9-1.1-1.3-1.7v-0.2c-2.4-3.7-4.6-7-5.7-10.2c-0.4-1.5,0-2.4,0.2-3.5c0-0.2,0.2-0.2,0.2-0.4l0,0l-1.1-2.6
		c11.5-6.7,21.3-16.3,28.7-28c3.9-6.1,7-12.8,9.1-19.6l2.6,0.4c0.2,0,0.2-0.2,0.4-0.2c0.9-0.4,1.5-1.1,2.8-1.1h0.4
		c3.5,0.4,7.2,1.7,11.3,3.3h0.2c0.7,0.2,1.3,0.7,2,0.9c1.3,0.7,2.4,1.1,3.9,1.5c0.4,0,0.9,0.2,1.3,0.2c0.2,0,0.4,0,0.7,0.2l0,0
		c0.7,0.2,1.1,0.2,1.7,0.2c3.3,0,6.1-2.2,7-5C470.2,318,467.8,314.5,463.9,313.4L463.9,313.4z M363.2,302.7l-9.6,4.6l-9.6-4.6
		l-2.4-10.2l6.5-8.3h10.7l6.5,8.3L363.2,302.7L363.2,302.7z M419.9,280.1c1.7,7.4,2.2,14.8,1.5,22l-33.3-9.6c-3-0.9-4.8-3.9-4.1-7
		c0.2-0.9,0.7-1.7,1.3-2.4l26.3-23.7C415.4,265.6,418.2,272.5,419.9,280.1L419.9,280.1z M401.2,246.4l-28.5,20.2
		c-2.4,1.5-5.7,1.1-7.6-1.3c-0.7-0.7-0.9-1.5-1.1-2.4l-2-35.4C377.1,229.3,390.8,236,401.2,246.4L401.2,246.4z M338.2,228.6
		c2.4-0.4,4.6-0.9,7-1.3l-2,34.8c-0.2,3-2.6,5.7-5.9,5.7c-0.9,0-2-0.2-2.6-0.7l-28.9-20.7C314.7,237.5,325.8,231.4,338.2,228.6
		L338.2,228.6z M295.4,259.5l25.9,23c2.4,2,2.6,5.7,0.7,8c-0.7,0.9-1.5,1.5-2.6,1.7l-33.7,9.8C284.3,287.3,287.6,272.3,295.4,259.5
		L295.4,259.5z M289.5,318.4l34.6-5.9c2.8-0.2,5.4,1.7,6.1,4.6c0.2,1.3,0.2,2.4-0.2,3.5l0,0l-13.3,32
		C304.5,344.7,294.7,332.7,289.5,318.4L289.5,318.4z M368.9,361.7c-5,1.1-10,1.7-15.2,1.7c-7.6,0-15-1.3-22-3.5l17.2-31.1
		c1.7-2,4.6-2.8,7-1.5c1.1,0.7,2,1.5,2.6,2.4l0,0l16.7,30.2C373.2,360.6,371,361,368.9,361.7L368.9,361.7z M411.2,331.4
		c-5.4,8.7-12.6,15.7-20.9,21.1l-13.7-32.8c-0.7-2.6,0.4-5.4,3-6.7c0.9-0.4,2-0.7,3-0.7l34.8,5.9C416.3,323,414.1,327.3,411.2,331.4
		L411.2,331.4z"/>
</g>
</svg>
