<?xml version="1.0" encoding="UTF-8" standalone="no"?>
<svg width="702px" height="683px" viewBox="0 0 702 683" version="1.1" xmlns="http://www.w3.org/2000/svg" xmlns:xlink="http://www.w3.org/1999/xlink">
    <!-- Generator: Sketch 39.1 (31720) - http://www.bohemiancoding.com/sketch -->
    <title>minikube</title>
    <desc>Created with Sketch.</desc>
    <defs>
        <polygon id="path-1" points="701.060294 684.263047 701.060294 1.59247059 0 1.59247059 0 684.263047"></polygon>
    </defs>
    <g id="Page-1" stroke="none" stroke-width="1" fill="none" fill-rule="evenodd">
        <g id="minikube" transform="translate(0.000000, -4.000000)">
            <g id="border" transform="translate(0.000000, 2.554588)">
                <mask id="mask-2" fill="white">
                    <use xlink:href="#path-1"></use>
                </mask>
                <g id="Clip-2"></g>
                <path d="M351.210679,1.59081176 L351.210679,1.59081176 C341.693179,1.59081176 332.171532,3.85925294 323.106062,7.93581176 L93.7363853,117.637959 C75.6012971,126.247253 62.9112971,142.1139 58.3785618,161.605076 L1.71315,407.749606 C-2.81958529,427.240782 1.71315,447.188135 14.4072971,463.054782 L173.061326,660.239135 C185.303444,675.653753 203.886415,684.263047 223.377591,684.263047 L477.683532,684.263047 C497.174709,684.263047 515.757679,675.653753 527.999797,660.239135 L686.653826,463.054782 C699.347974,447.640165 703.880709,427.240782 699.347974,407.749606 L642.682562,161.605076 C638.149826,142.1139 625.459826,126.247253 607.324738,117.637959 L378.863268,7.93581176 C370.249826,3.85925294 360.728179,1.59081176 351.210679,1.59081176 M351.210679,22.8942529 C357.555679,22.8942529 363.904826,24.2544882 369.797797,26.9749588 L599.167474,136.220929 C610.953415,142.1139 620.018885,152.995782 622.739356,165.685782 L679.400621,411.830312 C682.573121,424.976488 679.400621,438.574694 670.787179,449.0004 L512.13315,646.1889 C503.971738,656.614606 491.281738,662.507576 478.135562,662.507576 L223.833768,662.507576 C210.687591,662.507576 197.993444,656.614606 189.836179,646.1889 L31.1780029,449.0004 C23.0207382,438.574694 19.8482382,424.976488 22.5645618,411.830312 L79.2299735,165.685782 C82.4024735,152.539606 91.0159147,141.661871 102.801856,136.220929 L332.171532,26.5229294 C338.064503,24.2544882 344.865679,22.8942529 351.210679,22.8942529" id="Fill-1" fill="#326DE6" mask="url(#mask-2)"></path>
            </g>
            <path d="M218.498162,607.501403 C226.630544,617.711462 238.827044,623.347315 251.558515,623.347315 L451.127426,622.994815 C463.863044,622.994815 475.930985,617.006462 484.063368,607.148903 L605.721485,453.977285 C609.234044,449.195726 608.844221,439.819226 608.844221,431.919079 L608.844221,218.026226 L347.455103,368.527138 L347.455103,368.522991 L86.3148088,218.167226 L86.3148088,431.919079 C86.3148088,439.947785 89.1513971,447.777432 94.3683971,454.329785 L218.498162,607.501403 Z" id="kube-bottom" fill="#1FBFCF"></path>
            <polygon id="kube-top" fill="#C9E9EC" points="347.455103 368.526309 608.844221 218.029544 347.210426 67.6198676 86.3148088 218.158103"></polygon>
            <path d="M409.813182,484.797397 C402.319447,489.566515 392.096947,488.206279 385.963447,480.708397 C383.918947,478.663897 383.238829,475.939279 382.558712,473.214662 L376.425212,362.143985 C423.440418,367.597368 466.370771,388.718338 499.078624,421.426191 L409.813182,484.797397 Z M317.143006,470.485897 C316.458741,480.028279 308.965006,488.206279 298.742506,488.206279 C296.017888,488.206279 292.613153,487.522015 290.568653,486.161779 L199.938829,421.426191 C227.877565,393.487456 262.629918,374.410985 301.471271,365.552868 C308.965006,364.188485 315.778624,362.824103 323.276506,361.463868 L317.143006,470.485897 Z M571.988065,424.835074 L578.801682,418.701574 L578.801682,417.337191 C578.801682,413.932456 579.4818,410.523574 582.210565,407.118838 C590.384418,399.620956 600.606918,393.487456 612.869771,385.993721 C614.914271,384.629338 616.958771,383.949221 619.003271,382.584838 C623.092271,380.544485 626.501153,378.499985 630.590153,375.771221 C631.270271,375.091103 632.630506,374.410985 633.994888,373.046603 C634.675006,372.366485 635.359271,372.366485 635.359271,371.682221 C644.897506,363.508368 646.942006,349.881132 640.128388,341.023015 C636.719506,336.24975 630.590153,333.525132 624.456653,333.525132 C619.003271,333.525132 614.234153,335.569632 609.465035,338.978515 L608.100653,340.33875 C606.740418,341.023015 606.056153,342.38325 604.695918,343.063368 C601.287035,346.47225 598.562418,349.196868 595.8378,352.60575 C594.473418,353.965985 593.113182,356.010485 591.068682,357.374868 C581.5263,367.597368 572.668182,375.771221 563.810065,381.904721 C561.765565,383.269103 559.721065,383.949221 557.676565,383.949221 C556.316329,383.949221 554.951947,383.949221 553.587565,383.269103 L552.227329,383.269103 L544.049329,388.718338 C535.191212,379.180103 525.652976,371.002103 516.110594,362.824103 C475.228888,330.800515 425.484918,311.039779 373.700594,306.270662 L373.016329,297.412544 L371.656094,296.048162 C369.611594,294.003662 366.882829,291.959162 366.202712,287.190044 C365.522594,276.287426 366.882829,264.020426 368.247212,250.393191 L368.247212,249.713074 C368.247212,247.668574 368.927329,244.943956 369.611594,242.899456 C370.291712,238.810456 370.971829,234.721456 371.656094,229.952338 L371.656094,225.863338 L371.656094,223.818838 C371.656094,211.555985 362.113712,201.333485 350.530976,201.333485 C345.081741,201.333485 339.628359,204.058103 335.539359,208.147103 C331.450359,212.236103 329.405859,217.685338 329.405859,223.818838 L329.405859,225.183221 L329.405859,229.272221 C329.405859,234.041338 330.090124,238.130338 331.450359,242.215191 C332.134624,244.259691 332.134624,246.304191 332.814741,249.032956 L332.814741,249.713074 C334.179124,263.340309 336.219476,275.607309 334.859241,286.509926 C334.179124,291.279044 331.450359,293.323544 329.405859,295.368044 C328.725741,296.048162 328.725741,296.048162 328.045624,296.728279 L327.361359,305.586397 C315.098506,306.950779 302.831506,308.315162 290.568653,311.039779 C238.100065,322.622515 191.764976,349.196868 155.648241,387.358103 L148.834624,382.584838 L147.470241,382.584838 C146.110006,382.584838 144.745624,383.269103 143.385388,383.269103 C141.340888,383.269103 139.296388,382.584838 137.251888,381.224603 C128.393771,375.091103 119.535653,366.232985 109.993271,356.010485 C108.633035,354.65025 107.268653,352.60575 105.224153,351.241368 C102.499535,347.836632 99.7749176,345.107868 96.3660353,341.703132 C95.6859176,341.023015 94.3215353,340.33875 92.9613,338.978515 C92.2770353,338.29425 91.5969176,338.29425 91.5969176,337.614132 C87.5079176,334.20525 82.0586824,332.16075 76.6053,332.16075 C70.4718,332.16075 64.3424471,334.889515 60.9335647,339.658632 C54.1199471,348.51675 56.1644471,362.143985 65.7026824,370.321985 C66.3869471,370.321985 66.3869471,371.002103 67.0670647,371.002103 C68.4273,371.682221 69.1115647,373.046603 70.4718,373.726721 C74.5608,376.455485 77.9696824,378.499985 82.0586824,380.544485 C84.1031824,381.224603 86.1476824,382.584838 88.1880353,383.949221 C100.455035,391.447103 110.677535,397.576456 118.851388,405.074338 C122.260271,408.479074 122.260271,411.887956 122.260271,415.292691 L122.260271,416.657074 L129.073888,422.790574 C127.709506,424.835074 126.349271,426.195309 125.669153,428.239809 C117.677771,440.867603 110.893182,454.034515 105.232447,467.578809 L144.077947,515.510515 C149.332271,496.960721 157.025065,479.041279 167.230976,462.312044 L248.318418,534.541368 C255.8163,540.670721 256.496418,552.257603 250.362918,559.751338 C248.318418,562.475956 245.5938,564.520456 242.189065,565.204721 L195.364624,578.798779 L218.629624,607.500574 C226.762006,617.714779 238.954359,623.346485 251.689976,623.346485 L451.258888,622.993985 C463.990359,622.993985 476.0583,617.009779 484.194829,607.148074 L506.037388,579.644779 L458.192771,565.884838 C448.654535,563.160221 443.201153,553.617838 445.245653,544.079603 C445.925771,541.354985 447.290153,538.630368 449.334653,536.585868 L531.786476,462.312044 C541.822359,478.846368 549.805447,497.433485 555.304447,517.617221 L594.925447,467.736397 C588.530682,452.811132 580.858624,438.478897 571.988065,424.835074 L571.988065,424.835074 Z" id="wheel" fill="#326DE6"></path>
        </g>
    </g>
</svg>